<svg id="SvgjsSvg1000" xmlns="http://www.w3.org/2000/svg" version="1.1" xmlns:xlink="http://www.w3.org/1999/xlink" xmlns:svgjs="http://svgjs.com/svgjs" width="30" height="34"><defs id="SvgjsDefs1001"></defs><path id="SvgjsPath1007" d="M1190.31 25.63C1187.35 23.799999999999997 1186.27 21.27 1185.3 19.439999999999998C1183.2 15.659999999999998 1179.86 14.529999999999998 1176.35 15.389999999999997C1175.6499999999999 14.149999999999997 1174.4099999999999 13.559999999999997 1173.12 14.369999999999997C1171.77 15.179999999999998 1171.6699999999998 16.58 1172.37 17.819999999999997C1169.8899999999999 20.509999999999998 1169.1299999999999 24.179999999999996 1171.1799999999998 27.949999999999996C1172.2099999999998 29.779999999999994 1173.7099999999998 32.03999999999999 1173.7699999999998 35.65C1173.8199999999997 38.239999999999995 1171.7699999999998 39.97 1174.8499999999997 45.519999999999996L1197.8499999999997 31.509999999999998C1194.8399999999997 25.959999999999997 1192.4099999999996 26.93 1190.3099999999997 25.63 " fill="#b0bdc6" fill-opacity="1" transform="matrix(1,0,0,1,-1169,-13)"></path><path id="SvgjsPath1008" d="M1188.51 26.58C1185.87 24.54 1184.74 22.06 1183.72 20.229999999999997C1181.6100000000001 16.449999999999996 1178.65 15.049999999999997 1175.79 15.539999999999996C1175.09 14.299999999999995 1174.02 13.599999999999996 1172.94 14.249999999999996C1171.8600000000001 14.889999999999997 1171.8600000000001 16.239999999999995 1172.56 17.479999999999997C1170.6799999999998 19.9 1170.35 23.299999999999997 1172.3999999999999 27.119999999999997C1173.4199999999998 28.959999999999997 1174.8799999999999 31.22 1175.2599999999998 34.669999999999995C1175.4699999999998 37.089999999999996 1173.9099999999999 38.55 1176.9799999999998 44.14999999999999L1195.4099999999999 32.93999999999999C1192.34 27.33999999999999 1190.3999999999999 28.039999999999992 1188.5099999999998 26.57999999999999 " fill="#d9e3e8" fill-opacity="1" transform="matrix(1,0,0,1,-1169,-13)"></path><path id="SvgjsPath1009" d="M1198.14 31.71C1199.1100000000001 33.49 1194.8000000000002 38.120000000000005 1188.45 41.95C1182.0900000000001 45.830000000000005 1176.16 47.5 1175.14 45.720000000000006C1174.17 43.940000000000005 1178.48 39.31 1184.8400000000001 35.480000000000004C1191.2500000000002 31.600000000000005 1197.18 29.930000000000003 1198.14 31.710000000000004 " fill="#7d888e" fill-opacity="1" transform="matrix(1,0,0,1,-1169,-13)"></path><path id="SvgjsPath1010" d="M1196.79 32.63C1197.7 34.24 1193.56 38.5 1187.57 42.160000000000004C1181.59 45.77 1176.04 47.45 1175.1299999999999 45.77C1174.2099999999998 44.160000000000004 1178.36 39.900000000000006 1184.34 36.24C1190.32 32.63 1195.9299999999998 31.01 1196.79 32.63 " fill="#5a666b" fill-opacity="1" transform="matrix(1,0,0,1,-1169,-13)"></path><path id="SvgjsPath1011" d="M1176 43.37C1178.37 43.099999999999994 1182.2 41.589999999999996 1186.18 39.169999999999995C1190.17 36.739999999999995 1193.3500000000001 33.989999999999995 1194.75 31.999999999999993C1192.38 32.21999999999999 1188.56 33.779999999999994 1184.51 36.199999999999996C1180.53 38.629999999999995 1177.35 41.379999999999995 1176 43.37 " fill="#383f42" fill-opacity="1" transform="matrix(1,0,0,1,-1169,-13)"></path><path id="SvgjsPath1012" d="M1180.02 39C1179.65 39.32 1179.32 39.59 1179 39.92C1179.86 41.800000000000004 1181.8 42.93 1183.85 42.56C1182.23 42.88 1180.62 41.32 1180.02 39 " fill="#b0bdc6" fill-opacity="1" transform="matrix(1,0,0,1,-1169,-13)"></path><path id="SvgjsPath1013" d="M1185.48 35C1185.21 35.16 1184.94 35.32 1184.67 35.48C1184.67 35.48 1184.67 35.54 1184.72 35.54C1185.1000000000001 36.24 1185.3700000000001 36.99 1185.53 37.75C1185.69 38.56 1185.69 39.36 1185.48 40.12C1185.32 40.87 1184.89 41.629999999999995 1184.35 42.11C1183.9699999999998 42.54 1183.54 42.81 1183 42.92C1185.42 42.440000000000005 1187.1 40.010000000000005 1186.61 37.42C1186.4499999999998 36.45 1186.02 35.65 1185.4799999999998 35 " fill="#b0bdc6" fill-opacity="1" transform="matrix(1,0,0,1,-1169,-13)"></path><path id="SvgjsPath1014" d="M1186.36 38.26C1186.1999999999998 37.449999999999996 1185.9299999999998 36.699999999999996 1185.55 36.05C1185.55 36.05 1185.55 36 1185.5 36C1185.5 36 1185.44 36 1185.44 36.05C1185.39 36.11 1185.3300000000002 36.11 1185.23 36.16L1185.17 36.22C1183.23 37.4 1181.45 38.69 1180 39.879999999999995C1180.59 42.199999999999996 1182.21 43.709999999999994 1183.83 43.44C1184.36 43.33 1184.8 43.059999999999995 1185.1699999999998 42.629999999999995C1185.7099999999998 42.13999999999999 1186.1399999999999 41.38999999999999 1186.3 40.629999999999995C1186.52 39.879999999999995 1186.52 39.06999999999999 1186.36 38.26 " fill="#d9e3e8" fill-opacity="1" transform="matrix(1,0,0,1,-1169,-13)"></path></svg>